Coordinates
version=1
nRows=65
nColumns=12
inDegrees=yes

Units are S.I. units (second, meters, Newtons, ...)
Angles are in degrees

endheader
time	SC_y	SC_z	SC_x	AC_y	AC_z	AC_x	GH_y	GH_z	GH_yy	EL_x	PS_y
       0.0              -59.16          11.44          30.95          56.68         -6.023         -10.19         -97.82          67.47         -119.8          8.509          64.51
   0.03945              -59.16          11.44          30.95          56.68         -6.025         -10.19         -97.78          67.46         -119.8          8.527           64.5
    0.0789              -59.16          11.44          30.95          56.68         -6.026         -10.19         -97.74          67.45         -119.8          8.546          64.49
    0.1184              -59.15          11.43          30.95          56.68         -6.028         -10.19          -97.7          67.44         -119.8          8.567          64.48
    0.1578              -59.15          11.43          30.95          56.68          -6.03         -10.19         -97.66          67.44         -119.8          8.588          64.47
    0.1973              -59.15          11.43          30.94          56.67         -6.032          -10.2         -97.61          67.43         -119.8          8.612          64.46
    0.2367              -59.14          11.43          30.94          56.67         -6.034          -10.2         -97.56          67.42         -119.8          8.636          64.45
    0.2762              -59.14          11.43          30.94          56.67         -6.036          -10.2         -97.51          67.41         -119.8          8.663          64.44
    0.3156              -59.13          11.42          30.94          56.67         -6.038          -10.2         -97.45          67.39         -119.8          8.691          64.43
    0.3551              -59.13          11.42          30.94          56.67         -6.041          -10.2         -97.38          67.38         -119.8          8.721          64.42
    0.3945              -59.13          11.42          30.94          56.66         -6.044         -10.21         -97.32          67.37         -119.8          8.754           64.4
     0.434              -59.12          11.41          30.94          56.66         -6.047         -10.21         -97.25          67.35         -119.9          8.789          64.39
    0.4734              -59.11          11.41          30.93          56.66          -6.05         -10.21         -97.17          67.34         -119.9          8.827          64.37
    0.5129              -59.11          11.41          30.93          56.66         -6.053         -10.21         -97.08          67.32         -119.9          8.868          64.36
    0.5523               -59.1           11.4          30.93          56.65         -6.057         -10.22         -96.99          67.31         -119.9          8.912          64.34
    0.5918               -59.1           11.4          30.93          56.65         -6.061         -10.22         -96.89          67.29         -119.9           8.96          64.32
    0.6312              -59.09          11.39          30.92          56.64         -6.065         -10.22         -96.79          67.27         -119.9          9.012          64.29
    0.6707              -59.08          11.39          30.92          56.64          -6.07         -10.23         -96.67          67.24         -119.9          9.069          64.27
    0.7101              -59.07          11.38          30.92          56.63         -6.075         -10.23         -96.54          67.22         -119.9          9.131          64.24
    0.7496              -59.06          11.38          30.91          56.63         -6.081         -10.24          -96.4          67.19         -119.9          9.199          64.21
     0.789              -59.05          11.37          30.91          56.62         -6.087         -10.24         -96.25          67.16         -119.9          9.273          64.18
    0.8285              -59.04          11.36          30.91          56.62         -6.094         -10.25         -96.08          67.13         -119.9          9.356          64.15
    0.8679              -59.03          11.36           30.9          56.61         -6.101         -10.26          -95.9          67.09         -119.9          9.446          64.11
    0.9074              -59.01          11.35           30.9           56.6         -6.109         -10.26         -95.69          67.05         -119.9          9.547          64.06
    0.9468               -59.0          11.34          30.89          56.59         -6.119         -10.27         -95.46          67.01         -119.9          9.658          64.02
    0.9863              -58.98          11.33          30.89          56.58         -6.129         -10.28          -95.2          66.96         -119.9          9.783          63.96
     1.026              -58.96          11.31          30.88          56.57         -6.141         -10.29         -94.92           66.9         -119.9          9.922           63.9
     1.065              -58.93           11.3          30.87          56.56         -6.154          -10.3          -94.6          66.84         -120.0          10.08          63.84
     1.105              -58.91          11.28          30.86          56.55         -6.168         -10.32         -94.23          66.77         -120.0          10.26          63.76
     1.144              -58.88          11.27          30.85          56.53         -6.185         -10.33         -93.82          66.69         -120.0          10.46          63.67
     1.184              -58.85          11.25          30.84          56.51         -6.204         -10.35         -93.35          66.59         -120.0          10.69          63.58
     1.223              -58.81          11.22          30.83          56.49         -6.226         -10.37          -92.8          66.49         -120.0          10.95          63.46
     1.262              -58.77           11.2          30.81          56.47         -6.251         -10.39         -92.18          66.37         -120.1          11.26          63.33
     1.302              -58.71          11.16          30.79          56.44         -6.281         -10.42         -91.45          66.23         -120.1          11.61          63.18
     1.341              -58.66          11.13          30.77          56.41         -6.315         -10.45          -90.6          66.06         -120.1          12.02          63.01
     1.381              -58.59          11.08          30.75          56.37         -6.356         -10.48          -89.6          65.86         -120.2          12.51           62.8
      1.42               -58.5          11.03          30.72          56.33         -6.404         -10.53         -88.41          65.63         -120.2          13.09          62.55
      1.46               -58.4          10.97          30.68          56.28         -6.462         -10.58         -86.98          65.35         -120.3          13.79          62.25
     1.499              -58.28           10.9          30.64          56.21         -6.532         -10.64         -85.25          65.02         -120.4          14.63          61.89
     1.539              -58.13          10.81          30.59          56.13         -6.617         -10.71         -83.14           64.6         -120.4          15.66          61.45
     1.578              -57.95          10.69          30.53          56.03         -6.722         -10.81         -80.54           64.1         -120.6          16.92          60.91
     1.618              -57.72          10.55          30.45          55.91         -6.854         -10.93         -77.29          63.46         -120.7          18.51          60.23
     1.657              -57.44          10.38          30.35          55.76         -7.019         -11.07          -73.2          62.67         -120.9           20.5          59.38
     1.696              -57.07          10.15          30.22          55.56         -7.229         -11.26         -67.99          61.65         -121.1          23.03           58.3
     1.736              -56.61          9.864          30.06          55.31         -7.499          -11.5         -61.34          60.35         -121.4          26.27          56.91
     1.775              -56.01          9.495          29.85          54.99         -7.844         -11.81         -52.79          58.69         -121.7          30.43          55.13
     1.815              -55.25          9.024          29.58          54.58         -8.285          -12.2         -41.88          56.56         -122.2          35.75          52.86
     1.854              -54.29          8.432          29.25          54.07          -8.84         -12.69         -28.16          53.88         -122.7          42.43           50.0
     1.894              -53.12           7.71          28.84          53.44         -9.517         -13.29         -11.43          50.62         -123.4          50.57          46.52
     1.933              -51.76          6.874          28.37          52.72          -10.3         -13.99          7.952          46.84         -124.3          60.01          42.48
     1.973              -50.29          5.968          27.85          51.93         -11.15         -14.74          28.94          42.75         -125.1          70.23          38.11
     2.012              -48.82          5.062          27.34          51.14          -12.0          -15.5          49.93          38.66         -126.0          80.45          33.74
     2.051              -47.46          4.225          26.87          50.42         -12.78         -16.19          69.31          34.88         -126.8          89.88           29.7
     2.091              -46.29          3.503          26.46          49.79         -13.46         -16.79          86.04          31.62         -127.5          98.03          26.22
      2.13              -45.33          2.911          26.12          49.27         -14.01         -17.29          99.76          28.94         -128.1          104.7          23.36
      2.17              -44.57           2.44          25.86          48.86         -14.45         -17.68          110.7          26.81         -128.6          110.0          21.09
     2.209              -43.97          2.071          25.65          48.54          -14.8         -17.98          119.2          25.15         -128.9          114.2          19.31
     2.249              -43.51          1.784          25.49          48.29         -15.07         -18.22          125.9          23.85         -129.2          117.4          17.92
     2.288              -43.14          1.559          25.36           48.1         -15.28         -18.41          131.1          22.83         -129.4          120.0          16.84
     2.328              -42.86          1.383          25.26          47.95         -15.44         -18.56          135.2          22.04         -129.6          121.9          15.99
     2.367              -42.63          1.243          25.18          47.82         -15.58         -18.67          138.4           21.4         -129.7          123.5          15.31
     2.407              -42.45           1.13          25.12          47.73         -15.68         -18.77          141.0           20.9         -129.8          124.8          14.77
     2.446               -42.3          1.039          25.06          47.65         -15.77         -18.84          143.1          20.48         -129.9          125.8          14.33
     2.485              -42.18         0.9645          25.02          47.58         -15.84         -18.91          144.9          20.15         -130.0          126.7          13.97
     2.525              -42.08         0.9029          24.99          47.53         -15.89         -18.96          146.3          19.87         -130.1          127.4          13.67
